# Blender v2.80 (sub 39) OBJ File: ''
# www.blender.org
mtllib cube_rotated.mtl
o cube
v 0.336484 -0.323201 1.668028
v -1.032845 -1.238874 -0.631206
v 0.787062 -1.536250 0.143072
v -0.336484 0.323201 -1.668028
v 1.032844 1.238875 0.631206
v 1.483422 0.025826 -0.893750
v -1.483423 -0.025826 0.893751
v -0.787062 1.536250 -0.143072
vt 1.000000 0.000000
vt 0.000000 1.000000
vt 0.000000 0.000000
vt 1.000000 0.000000
vt 0.000000 1.000000
vt 0.000000 0.000000
vt 1.000000 0.000000
vt 0.000000 1.000000
vt 1.000000 0.000000
vt 0.000000 1.000000
vt 0.000000 0.000000
vt 0.000000 0.000000
vt 1.000000 1.000000
vt 1.000000 0.000000
vt 0.000000 1.000000
vt 1.000000 1.000000
vt 1.000000 1.000000
vt 1.000000 1.000000
vt 1.000000 0.000000
vt 1.000000 1.000000
vn -0.3482 -0.7810 0.5184
vn 0.3482 0.7810 -0.5184
vn 0.9100 -0.1487 0.3871
vn -0.2253 0.6065 0.7625
vn -0.9100 0.1487 -0.3871
vn 0.2253 -0.6065 -0.7625
usemtl Default_OBJ
s 1
f 1/1/1 2/2/1 3/3/1
f 4/4/2 5/5/2 6/6/2
f 6/7/3 1/8/3 3/3/3
f 5/9/4 7/10/4 1/11/4
f 7/12/5 4/13/5 2/2/5
f 3/14/6 4/15/6 6/6/6
f 1/1/1 7/16/1 2/2/1
f 4/4/2 8/17/2 5/5/2
f 6/7/3 5/18/3 1/8/3
f 5/9/4 8/17/4 7/10/4
f 7/12/5 8/19/5 4/13/5
f 3/14/6 2/20/6 4/15/6
