# Blender v2.80 (sub 39) OBJ File: ''
# www.blender.org
mtllib cube_scaled_rotated.mtl
o Cube
v 9.564449 76.481049 -4.622749
v 21.936062 18.915974 -71.576500
v 54.231083 22.241695 50.264263
v 66.602699 -35.323383 -16.689487
v -66.602699 35.323383 16.689487
v -54.231083 -22.241695 -50.264263
v -21.936062 -18.915974 71.576500
v -9.564449 -76.481049 4.622749
vt 0.375000 0.000000
vt 0.625000 0.000000
vt 0.625000 0.250000
vt 0.375000 0.250000
vt 0.375000 0.250000
vt 0.625000 0.250000
vt 0.625000 0.500000
vt 0.375000 0.500000
vt 0.625000 0.750000
vt 0.375000 0.750000
vt 0.625000 0.750000
vt 0.625000 1.000000
vt 0.375000 1.000000
vt 0.125000 0.500000
vt 0.375000 0.500000
vt 0.375000 0.750000
vt 0.125000 0.750000
vt 0.625000 0.500000
vt 0.875000 0.500000
vt 0.875000 0.750000
vn -0.1388 0.6456 0.7509
vn 0.5010 -0.6083 0.6156
vn -0.8543 -0.4616 0.2390
vn 0.1388 -0.6456 -0.7509
vn 0.8543 0.4616 -0.2390
vn -0.5010 0.6083 -0.6156
usemtl Material
s off
f 1/1/1 5/2/1 7/3/1 3/4/1
f 4/5/2 3/6/2 7/7/2 8/8/2
f 8/8/3 7/7/3 5/9/3 6/10/3
f 6/10/4 2/11/4 4/12/4 8/13/4
f 2/14/5 1/15/5 3/16/5 4/17/5
f 6/18/6 5/19/6 1/20/6 2/11/6
