# Blender v2.80 (sub 39) OBJ File: ''
# www.blender.org
mtllib cube_scaled_rotated.mtl
o Cube_Cube.001
v -6.952331 -28.833942 7.263861
v -12.177772 -0.791965 27.992311
v -20.114365 -11.010448 -20.166237
v -25.339806 17.031528 0.562214
v 25.339806 -17.031528 -0.562214
v 20.114365 11.010448 20.166237
v 12.177772 0.791965 -27.992311
v 6.952331 28.833942 -7.263861
vt 0.375000 0.000000
vt 0.625000 0.000000
vt 0.625000 0.250000
vt 0.375000 0.250000
vt 0.625000 0.500000
vt 0.375000 0.500000
vt 0.625000 0.750000
vt 0.375000 0.750000
vt 0.625000 1.000000
vt 0.375000 1.000000
vt 0.125000 0.500000
vt 0.125000 0.750000
vt 0.875000 0.500000
vt 0.875000 0.750000
vn -0.9158 -0.3347 0.2219
vn -0.3733 0.5055 -0.7779
vn 0.9158 0.3347 -0.2219
vn 0.3733 -0.5055 0.7779
vn 0.1482 -0.7953 -0.5879
vn -0.1482 0.7953 0.5879
usemtl None
s off
f 1/1/1 2/2/1 4/3/1 3/4/1
f 3/4/2 4/3/2 8/5/2 7/6/2
f 7/6/3 8/5/3 6/7/3 5/8/3
f 5/8/4 6/7/4 2/9/4 1/10/4
f 3/11/5 7/6/5 5/8/5 1/12/5
f 8/5/6 4/13/6 2/14/6 6/7/6
